<svg version="1" xmlns="http://www.w3.org/2000/svg" width="1333.333" height="1333.333" viewBox="0 0 1000.000000 1000.000000"><path d="M467 1c-19.5 1.4-44.8 4.8-64 8.6C194.8 50.7 35 219.3 5.1 429.5 1.4 455.1.6 469 .6 500.5c0 33.4 1.4 51.7 6 80C29.2 718.4 107.2 839 224 916.8c120.7 80.3 272.2 103.9 412.6 64.1C811.1 931.5 946.1 789.8 987 613c19.4-83.6 16.8-172.2-7.6-254.7-45-152.7-161-275.3-311.3-329.2C630.7 15.6 586.8 6 545 2 529.5.5 482.5-.1 467 1zm85 56.4c102.2 12.9 192.9 57.2 263.7 128.7 8.3 8.5 18.6 19.4 22.9 24.4 53.2 62.3 88.7 139.3 101.3 219.6 4.1 26.4 4.6 33.7 4.6 70.9-.1 31.9-.4 38.6-2.3 53.3-11.6 88.1-44.7 163.9-101 232-10.3 12.5-36.3 38.8-49.6 50.4-59.2 51-128.9 85.1-205.1 100.2-32.1 6.4-45.3 7.5-86 7.6-40.4 0-49.5-.7-81.5-6.6-62.2-11.4-121.4-36.1-173.8-72.6-36.6-25.5-73.4-60.9-100.2-96.3-48.4-64.1-77.5-136.6-87.7-218.5-2.6-20.4-2.5-81 0-101.5 12.5-100.6 54.8-189.1 124.2-259.9 38.5-39.3 76.6-66.8 124.7-90C357.5 74.3 406.8 61 467 55.6c11.5-1 73.1.3 85 1.8z"/><path d="M499.3 147.2c-.4.7-70 120.8-154.5 266.8L191.1 679.5l154.5.3c84.9.1 223.9.1 308.8 0l154.5-.3-92.6-160C665.4 431.5 596 311.4 562 252.7c-41.8-72.1-62.1-106.4-62.7-105.5z"/></svg>